<svg viewBox="0 0 137 28" fill="none" xmlns="http://www.w3.org/2000/svg">
<path fill-rule="evenodd" clip-rule="evenodd" d="M4.9282 0L3.6897 7.03665H29.3918L30.6303 0H4.9282ZM1.1308 21.5735L0 28H7.0233L7.87717 23.1496C8.36565 20.3776 10.8157 18.0282 13.6235 17.639L27.874 15.6685L29.1125 8.63187L12.1876 10.9723C6.78483 11.7199 2.07058 16.2402 1.13209 21.5735H1.1308ZM73.9276 27.571L78.7804 0.0012207H83.4998H84.8613H90.6317C92.3985 0.0012207 93.8486 0.327489 94.982 0.977461C96.1141 1.62872 96.9025 2.50091 97.3474 3.59404C97.7909 4.68716 97.8988 5.88563 97.6707 7.18685C97.3644 8.93125 96.5627 10.3828 95.2667 11.5414C94.714 12.0359 94.0779 12.4651 93.3588 12.8291C94.2197 13.2863 94.9121 13.8662 95.4359 14.569C96.4449 15.9229 96.7757 17.589 96.427 19.5671C96.1617 21.0777 95.5528 22.4316 94.6013 23.6288C93.6497 24.826 92.4155 25.7829 90.8998 26.4997C89.3832 27.2165 87.6508 27.5736 85.7021 27.5736H78.647L78.6442 27.571H73.9276ZM82.852 11.4166L84.0159 4.80407H88.6179C89.6047 4.80407 90.3654 5.05838 90.8998 5.56578C91.4333 6.07318 91.6228 6.7694 91.4394 7.81116C91.2561 8.85287 90.8089 9.61973 90.0986 10.1156C88.8741 10.9712 84.9589 11.2996 82.852 11.4166ZM80.8539 22.7681L82.0426 16.0153L86.869 15.5761C87.2408 15.5427 87.6112 15.5414 87.9652 15.5954C88.4228 15.6647 88.8201 15.8035 89.1561 16.0116C89.6599 16.3237 90.0204 16.7527 90.2358 17.2999C90.4512 17.8471 90.4997 18.4586 90.3805 19.1355C90.1972 20.1773 89.7061 21.0431 88.9101 21.7329C88.1127 22.4239 87.1291 22.7681 85.9599 22.7681H80.8539ZM54.7028 7.02005L51.0862 27.5712H57.0889L59.2044 15.1479L59.27 15.1832C59.384 14.532 59.6277 13.9591 60.0004 13.4645C60.3723 12.97 60.8299 12.5859 61.3723 12.3123C61.9148 12.0387 62.4982 11.9025 63.1213 11.9025C64.0572 11.9025 64.783 12.2083 65.2981 12.8197C65.8137 13.4311 65.9866 14.2185 65.8175 15.1819L63.6368 27.5712L63.6378 27.5725H69.6405L72.0548 13.855C72.2829 12.5538 72.183 11.3502 71.7546 10.2429C71.3253 9.13695 70.6226 8.25833 69.6457 7.60711C68.6687 6.95711 67.4919 6.63084 66.1148 6.63084C64.6595 6.63084 63.3008 6.93657 62.0364 7.54799C61.4123 7.8502 60.8378 8.21396 60.3128 8.63928L60.69 6.42412L54.7028 7.02005ZM34.0352 26.9068C35.2711 27.6351 36.7455 27.9999 38.4609 27.9999V27.9973C40.2277 27.9973 41.8367 27.639 43.288 26.9235C44.7393 26.208 45.9458 25.2189 46.9085 23.9562C47.8704 22.6935 48.4986 21.2292 48.7922 19.5632L50.9973 7.03519L44.9227 7.44494L42.8034 19.4848C42.6303 20.4739 42.2393 21.2549 41.6316 21.8278C41.0251 22.4007 40.279 22.6871 39.3956 22.6871C38.7981 22.6871 38.302 22.5574 37.9058 22.2966C37.5083 22.0372 37.2366 21.6659 37.0878 21.1842C36.9391 20.7038 36.9224 20.1373 37.0365 19.4861L39.0943 7.79048L32.9954 8.33768L31.0197 19.5644C30.7312 21.2048 30.8517 22.6563 31.3838 23.919C31.9159 25.1829 32.7992 26.1785 34.0352 26.9068ZM103.164 27.139C104.7 27.8301 106.506 28.0793 108.584 27.8854L108.583 27.8866C110.214 27.7337 111.722 27.3291 113.106 26.6728C114.491 26.0163 115.703 25.0863 116.74 23.8827L113.652 20.9309C113.019 21.6322 112.309 22.1807 111.52 22.5764C110.731 22.972 109.877 23.2122 108.956 23.2983C107.931 23.3946 107.061 23.2636 106.346 22.9065C105.63 22.5494 105.103 21.9881 104.76 21.2225C104.654 20.9845 104.568 20.7308 104.503 20.4615L118.224 19.1133C118.393 18.6355 118.512 18.2064 118.582 17.8262C118.651 17.4473 118.701 17.076 118.731 16.7125C118.881 14.8731 118.593 13.2803 117.867 11.9328C117.141 10.5866 116.087 9.57824 114.706 8.9103C113.326 8.24364 111.675 7.9983 109.755 8.1781C107.809 8.3605 106.024 8.95143 104.404 9.95206C102.782 10.9527 101.464 12.2398 100.448 13.8133C99.4331 15.3882 98.8496 17.1069 98.6984 18.9733C98.5433 20.8911 98.8638 22.5584 99.6626 23.9752C100.46 25.3921 101.628 26.4467 103.164 27.139ZM104.834 16.3388C104.934 16.0769 105.049 15.8268 105.179 15.5886C105.623 14.7755 106.212 14.1165 106.945 13.6104C107.677 13.1043 108.517 12.8075 109.464 12.7189C110.332 12.638 111.059 12.7626 111.646 13.094C112.232 13.4242 112.655 13.9315 112.913 14.6149C113.015 14.8854 113.092 15.1856 113.144 15.5152L104.834 16.3388ZM120.604 13.707L121.504 8.59076L125.82 8.21529L127.135 0.742279H133.138L131.916 7.68493L136.269 7.30621L135.369 12.4225L131.016 12.8012L128.416 27.5709H122.413L124.92 13.3316L120.604 13.707Z" fill="white"/>
</svg>
